<svg width="306" height="162" viewBox="0 0 306 162" fill="none" xmlns="http://www.w3.org/2000/svg">
<g clip-path="url(#clip0_2675_1383)">
<path d="M242.867 114.88H191.848L194.736 101.082L260.195 30.0078H275.918L260.836 100.922H272.067L269.179 114.88H257.949L252.494 140.711H237.412L242.867 114.88ZM245.755 101.082L256.825 49.2605H256.344L249.606 58.8868L211.903 101.082H245.755Z" fill="black"/>
<path d="M173.958 127.565V34.3206H133.997V21H173.958V34.3206H187.279V127.565H173.958ZM120.676 127.565V34.3206H133.997V127.565H173.958V140.886H133.997V127.565H120.676Z" fill="black"/>
<path d="M90.8064 68.9945L110.54 46.6935L98.9888 100.922H110.22L107.332 114.88H96.1009L90.646 140.711H75.5647L90.8064 68.9945ZM32.8879 101.082L98.347 30.0078H114.07L50.0549 101.082H74.2812L71.3933 114.88H30L32.8879 101.082Z" fill="black"/>
</g>
<defs>
<clipPath id="clip0_2675_1383">
<rect width="306" height="162" fill="white"/>
</clipPath>
</defs>
</svg>
