<svg width="306" height="162" viewBox="0 0 306 162" fill="none" xmlns="http://www.w3.org/2000/svg">
<g clip-path="url(#clip0_2675_1383)">
<path d="M245.399 60.9619V47.6412H258.72V21H272.04V100.924H285.361V114.244H272.04V127.565H285.361V140.886H245.399V127.565H258.72V114.244H205.437V100.924H218.758V87.6031H232.079V100.924H258.72V60.9619H245.399ZM232.079 87.6031V60.9619H245.399V87.6031H232.079Z" fill="black"/>
<path d="M111.821 123.062L127.865 47.6561L149.203 30.0078H191.399L205.357 47.6561L189.313 123.062L167.975 140.711H125.779L111.821 123.062ZM162.841 126.913L175.836 116.164L185.944 68.3527L127.544 119.533L133.48 126.913H162.841ZM189.634 51.1858L183.698 43.8056H154.337L141.342 54.555L131.234 102.366L189.634 51.1858Z" fill="black"/>
<path d="M67.0124 112.858H12L15.1139 97.9806L85.6959 21.3438H102.649L86.3879 97.8076H98.4975L95.3837 112.858H83.274L77.3922 140.71H61.1306L67.0124 112.858ZM70.1264 97.9806L82.063 42.1032H81.544L74.2782 52.4829L33.6244 97.9806H70.1264Z" fill="black"/>
</g>
<defs>
<clipPath id="clip0_2675_1383">
<rect width="306" height="162" fill="white"/>
</clipPath>
</defs>
</svg>
