<svg width="306" height="162" viewBox="0 0 306 162" fill="none" xmlns="http://www.w3.org/2000/svg">
<g clip-path="url(#clip0_2675_1383)">
<path d="M252.189 114.88H201.169L204.057 101.082L269.516 30.0078H285.239L270.158 100.922H281.389L278.501 114.88H267.27L261.815 140.711H246.734L252.189 114.88ZM255.077 101.082L266.147 49.2605H265.666L258.927 58.8868L221.224 101.082H255.077Z" fill="black"/>
<path d="M112.354 123.062L119.253 90.1724H134.334L128.077 119.533L134.013 126.913H145.565L142.677 140.711H126.312L112.354 123.062ZM155.191 126.913H163.374L176.369 116.164L181.824 90.1724H196.905L189.846 123.062L168.508 140.711H152.303L155.191 126.913ZM141.554 94.023L179.738 62.0956L176.53 76.6956L138.506 108.623L141.554 94.023ZM128.398 47.6561L149.736 30.0078H166.101L163.213 43.8056H154.87L141.875 54.555L136.42 80.5461H121.339L128.398 47.6561ZM190.167 51.1858L184.231 43.8056H172.84L175.727 30.0078H191.932L205.89 47.6561L198.831 80.5461H183.91L190.167 51.1858Z" fill="black"/>
<path d="M59.9619 60.9619V47.6412H73.2825V21H86.6031V100.924H99.9238V114.244H86.6031V127.565H99.9238V140.886H59.9619V127.565H73.2825V114.244H20V100.924H33.3206V87.6031H46.6413V100.924H73.2825V60.9619H59.9619ZM46.6413 87.6031V60.9619H59.9619V87.6031H46.6413Z" fill="black"/>
</g>
<defs>
<clipPath id="clip0_2675_1383">
<rect width="306" height="162" fill="white"/>
</clipPath>
</defs>
</svg>
